<svg width="59" height="45" viewBox="0 0 59 45" fill="none" xmlns="http://www.w3.org/2000/svg">
<path opacity="0.25" d="M7.40807 45C3.31671 45 0 41.6833 0 37.5919V33.1579C0 29.5614 0.639387 25.7456 1.91816 21.7105C3.24103 17.6316 5.13715 13.7061 7.6065 9.93421C9.18207 7.54227 10.9569 5.34852 12.931 3.35297C14.9955 1.26605 18.2923 1.31257 20.5755 3.15771C23.1409 5.23096 23.6371 8.92634 21.9213 11.7434C20.4429 14.1706 19.0887 16.6597 17.8587 19.2105C15.8303 23.4649 14.8161 28.0263 14.8161 32.8947V37.5919C14.8161 41.6833 11.4994 45 7.40807 45ZM41.2735 45C37.1822 45 33.8655 41.6833 33.8655 37.5919V33.1579C33.8655 29.5614 34.5049 25.7456 35.7836 21.7105C37.1065 17.6316 39.0026 13.7061 41.472 9.93421C43.0475 7.54227 44.8224 5.34852 46.7965 3.35297C48.861 1.26605 52.1578 1.31257 54.441 3.1577C57.0064 5.23096 57.5026 8.92634 55.7868 11.7434C54.3083 14.1706 52.9542 16.6597 51.7242 19.2105C49.6958 23.4649 48.6816 28.0263 48.6816 32.8947V37.5919C48.6816 41.6833 45.3649 45 41.2735 45Z" fill="white"/>
</svg>
